SplineFontDB: 3.2
FontName: Square-Regular
FullName: Square
FamilyName: Square
Weight: Book
Copyright: Wouter van Oortmerssen
Version: 1.000
ItalicAngle: 0
UnderlinePosition: -256
UnderlineWidth: 128
Ascent: 1792
Descent: 256
InvalidEm: 0
sfntRevision: 0x00010000
LayerCount: 2
Layer: 0 1 "Back" 1
Layer: 1 1 "Fore" 0
XUID: [1021 685 1160331412 4403645]
StyleMap: 0x0040
FSType: 0
OS2Version: 3
OS2_WeightWidthSlopeOnly: 0
OS2_UseTypoMetrics: 0
CreationTime: 1380047040
ModificationTime: 1702043194
PfmFamily: 81
TTFWeight: 400
TTFWidth: 5
LineGap: 0
VLineGap: 0
Panose: 0 0 5 4 0 0 0 0 0 4
OS2TypoAscent: 1792
OS2TypoAOffset: 0
OS2TypoDescent: -256
OS2TypoDOffset: 0
OS2TypoLinegap: 0
OS2WinAscent: 1856
OS2WinAOffset: 0
OS2WinDescent: 192
OS2WinDOffset: 0
HheadAscent: 1792
HheadAOffset: 0
HheadDescent: -256
HheadDOffset: 0
OS2SubXSize: 1351
OS2SubYSize: 1351
OS2SubXOff: 0
OS2SubYOff: 220
OS2SupXSize: 1351
OS2SupYSize: 1351
OS2SupXOff: 0
OS2SupYOff: 565
OS2StrikeYSize: 154
OS2StrikeYPos: 640
OS2CapHeight: 1664
OS2XHeight: 1664
OS2Vendor: '    '
OS2CodePages: 00000001.00000000
OS2UnicodeRanges: 00000001.00000000.00000000.00000000
DEI: 91125
ShortTable: maxp 16
  1
  0
  99
  52
  16
  0
  0
  0
  0
  0
  0
  0
  0
  0
  0
  0
EndShort
LangName: 1033 "" "" "Modern" "Square-Regular-2013:9:25" "" "Version 1.000"
GaspTable: 1 65535 2 0
Encoding: UnicodeBmp
UnicodeInterp: none
NameList: AGL For New Fonts
DisplaySize: -36
AntiAlias: 1
FitToEm: 0
WinInfo: 49 49 17
BeginChars: 65540 99

StartChar: .notdef
Encoding: 65536 -1 0
Width: 2048
GlyphClass: 1
Flags: W
LayerCount: 2
Fore
SplineSet
190 0 m 1,0,-1
 190 1664 l 1,1,-1
 1856 1664 l 1,2,-1
 1856 0 l 1,3,-1
 190 0 l 1,0,-1
352 160 m 1,4,-1
 1696 160 l 1,5,-1
 1696 1504 l 1,6,-1
 352 1504 l 1,7,-1
 352 160 l 1,4,-1
352 1504 m 1,8,-1
 912 832 l 1,9,-1
 352 160 l 1,10,-1
 560 160 l 1,11,-1
 1024 720 l 1,12,-1
 1488 160 l 1,13,-1
 1696 160 l 1,14,-1
 1136 832 l 1,15,-1
 1696 1504 l 1,16,-1
 1488 1504 l 1,17,-1
 1024 944 l 1,18,-1
 560 1504 l 1,19,-1
 352 1504 l 1,8,-1
EndSplineSet
EndChar

StartChar: exclam
Encoding: 33 33 4
Width: 2048
GlyphClass: 1
Flags: W
LayerCount: 2
Fore
SplineSet
896 1664 m 1,0,-1
 1152 1664 l 1,1,-1
 1152 512 l 1,2,-1
 896 512 l 1,3,-1
 896 1664 l 1,0,-1
896 256 m 1,4,-1
 1152 256 l 1,5,-1
 1152 0 l 1,6,-1
 896 0 l 1,7,-1
 896 256 l 1,4,-1
EndSplineSet
EndChar

StartChar: quotedbl
Encoding: 34 34 5
Width: 2048
GlyphClass: 1
Flags: W
LayerCount: 2
Fore
SplineSet
1152 1664 m 1,0,-1
 1536 1664 l 1,1,-1
 1536 1280 l 1,2,-1
 1344 960 l 1,3,-1
 1152 1280 l 1,4,-1
 1152 1664 l 1,0,-1
1152 1664 m 1,5,-1
 1536 1664 l 1,6,-1
 1536 1280 l 1,7,-1
 1344 960 l 1,8,-1
 1152 1280 l 1,9,-1
 1152 1664 l 1,5,-1
512 1664 m 1,10,-1
 896 1664 l 1,11,-1
 896 1280 l 1,12,-1
 704 960 l 1,13,-1
 512 1280 l 1,14,-1
 512 1664 l 1,10,-1
512 1664 m 1,15,-1
 896 1664 l 1,16,-1
 896 1280 l 1,17,-1
 704 960 l 1,18,-1
 512 1280 l 1,19,-1
 512 1664 l 1,15,-1
EndSplineSet
EndChar

StartChar: numbersign
Encoding: 35 35 6
Width: 2048
GlyphClass: 1
Flags: W
LayerCount: 2
Fore
SplineSet
192 1280 m 1,0,-1
 576 1280 l 1,1,-1
 576 1664 l 1,2,-1
 832 1664 l 1,3,-1
 832 1280 l 1,4,-1
 1216 1280 l 1,5,-1
 1216 1664 l 1,6,-1
 1472 1664 l 1,7,-1
 1472 1280 l 1,8,-1
 1856 1280 l 1,9,-1
 1856 1024 l 1,10,-1
 1472 1024 l 1,11,-1
 1472 640 l 1,12,-1
 1856 640 l 1,13,-1
 1856 384 l 1,14,-1
 1472 384 l 1,15,-1
 1472 0 l 1,16,-1
 1216 0 l 1,17,-1
 1216 384 l 1,18,-1
 832 384 l 1,19,-1
 832 0 l 1,20,-1
 576 0 l 1,21,-1
 576 384 l 1,22,-1
 192 384 l 1,23,-1
 192 640 l 1,24,-1
 576 640 l 1,25,-1
 576 1024 l 1,26,-1
 192 1024 l 1,27,-1
 192 1280 l 1,0,-1
832 1024 m 1,28,-1
 832 640 l 1,29,-1
 1216 640 l 1,30,-1
 1216 1024 l 1,31,-1
 832 1024 l 1,28,-1
EndSplineSet
EndChar

StartChar: dollar
Encoding: 36 36 7
Width: 2048
GlyphClass: 1
Flags: W
LayerCount: 2
Fore
SplineSet
1856 1280 m 1,0,-1
 640 1280 l 2,1,2
 448 1280 448 1280 448 1120 c 128,-1,3
 448 960 448 960 640 960 c 2,4,-1
 1408 960 l 2,5,6
 1856 960 1856 960 1856 544 c 128,-1,7
 1856 128 1856 128 1408 128 c 2,8,-1
 192 128 l 1,9,-1
 192 384 l 1,10,-1
 1408 384 l 2,11,12
 1600 384 1600 384 1600 544 c 128,-1,13
 1600 704 1600 704 1408 704 c 2,14,-1
 640 704 l 2,15,16
 192 704 192 704 192 1120 c 128,-1,17
 192 1536 192 1536 640 1536 c 2,18,-1
 1856 1536 l 1,19,-1
 1856 1280 l 1,0,-1
896 1664 m 1,20,-1
 1152 1664 l 1,21,-1
 1152 0 l 1,22,-1
 896 0 l 1,23,-1
 896 1664 l 1,20,-1
EndSplineSet
EndChar

StartChar: percent
Encoding: 37 37 8
Width: 2048
GlyphClass: 1
Flags: W
LayerCount: 2
Fore
SplineSet
1632 1664 m 1,0,-1
 728 0 l 1,1,-1
 432 0 l 1,2,-1
 1336 1664 l 1,3,-1
 1632 1664 l 1,0,-1
384 1664 m 1,4,-1
 768 1664 l 1,5,-1
 768 1280 l 1,6,-1
 384 1280 l 1,7,-1
 384 1664 l 1,4,-1
1280 384 m 1,8,-1
 1664 384 l 1,9,-1
 1664 0 l 1,10,-1
 1280 0 l 1,11,-1
 1280 384 l 1,8,-1
EndSplineSet
EndChar

StartChar: ampersand
Encoding: 38 38 9
Width: 2048
GlyphClass: 1
Flags: W
LayerCount: 2
Fore
SplineSet
672 0 m 2,0,1
 192 0 192 0 192 384 c 128,-1,2
 192 768 192 768 512 928 c 1,3,4
 320 1088 320 1088 320 1376 c 128,-1,5
 320 1664 320 1664 672 1664 c 2,6,-1
 896 1664 l 2,7,8
 1280 1664 1280 1664 1280 1216 c 1,9,10
 1216 960 1216 960 960 864 c 1,11,12
 1152 704 1152 704 1280 576 c 1,13,-1
 1664 960 l 1,14,-1
 1856 768 l 1,15,-1
 1472 384 l 1,16,-1
 1728 160 l 1,17,-1
 1536 0 l 1,18,-1
 1312 192 l 1,19,20
 1216 64 1216 64 960 0 c 1,21,-1
 672 0 l 2,0,1
768 1408 m 0,22,23
 576 1408 576 1408 576 1280 c 0,24,25
 576 1216 576 1216 640 1152 c 2,26,-1
 768 1024 l 1,27,-1
 960 1152 l 1,28,29
 1024 1184 1024 1184 1024 1296 c 128,-1,30
 1024 1408 1024 1408 896 1408 c 0,31,32
 832 1408 832 1408 768 1408 c 0,22,23
544 640 m 0,33,34
 448 544 448 544 448 400 c 128,-1,35
 448 256 448 256 672 256 c 2,36,-1
 896 256 l 1,37,38
 992 288 992 288 1088 384 c 1,39,40
 896 576 896 576 704 736 c 1,41,42
 608 704 608 704 544 640 c 0,33,34
EndSplineSet
EndChar

StartChar: quotesingle
Encoding: 39 39 10
Width: 2048
GlyphClass: 1
Flags: W
LayerCount: 2
Fore
SplineSet
832 1664 m 1,0,-1
 1216 1664 l 1,1,-1
 1216 1280 l 1,2,-1
 1024 960 l 1,3,-1
 832 1280 l 1,4,-1
 832 1664 l 1,0,-1
EndSplineSet
EndChar

StartChar: parenleft
Encoding: 40 40 11
Width: 2048
GlyphClass: 1
Flags: W
LayerCount: 2
Fore
SplineSet
1152 1792 m 1,0,-1
 1248 1536 l 1,1,2
 896 1536 896 1536 896 896 c 256,3,4
 896 256 896 256 1248 128 c 1,5,-1
 1152 -128 l 1,6,7
 640 128 640 128 640 896 c 256,8,9
 640 1664 640 1664 1152 1792 c 1,0,-1
EndSplineSet
EndChar

StartChar: parenright
Encoding: 41 41 12
Width: 2048
GlyphClass: 1
Flags: W
LayerCount: 2
Fore
SplineSet
896 1792 m 1,0,-1
 800 1536 l 1,1,2
 1152 1536 1152 1536 1152 896 c 256,3,4
 1152 256 1152 256 800 128 c 1,5,-1
 896 -128 l 1,6,7
 1408 128 1408 128 1408 896 c 256,8,9
 1408 1664 1408 1664 896 1792 c 1,0,-1
EndSplineSet
EndChar

StartChar: asterisk
Encoding: 42 42 13
Width: 2048
GlyphClass: 1
Flags: W
LayerCount: 2
Fore
SplineSet
192 960 m 1,0,-1
 704 960 l 1,1,-1
 384 1344 l 1,2,-1
 576 1536 l 1,3,-1
 1024 960 l 1,4,-1
 1472 1536 l 1,5,-1
 1664 1344 l 1,6,-1
 1344 960 l 1,7,-1
 1856 960 l 1,8,9
 1856 704 1856 704 1856 704 c 1,10,11
 1739 704 1739 704 1344 704 c 1,12,13
 1344 704 1344 704 1664 320 c 1,14,15
 1664 320 1664 320 1472 128 c 1,16,17
 1472 128 1472 128 1024 704 c 1,18,19
 1024 704 1024 704 576 128 c 1,20,21
 576 128 576 128 384 320 c 1,22,23
 704 704 704 704 704 704 c 1,24,25
 601 704 601 704 192 704 c 1,26,-1
 192 960 l 1,0,-1
EndSplineSet
EndChar

StartChar: plus
Encoding: 43 43 14
Width: 2048
GlyphClass: 1
Flags: W
LayerCount: 2
Fore
SplineSet
192 960 m 1,0,-1
 894 960 l 1,1,2
 894 1178 894 1178 896 1664 c 1,3,4
 976 1663 976 1663 1152 1664 c 1,5,-1
 1150 962 l 1,6,-1
 1856 960 l 1,7,-1
 1856 704 l 1,8,-1
 1152 704 l 1,9,-1
 1152 0 l 1,10,-1
 896 0 l 1,11,-1
 896 704 l 1,12,-1
 192 704 l 1,13,-1
 192 960 l 1,0,-1
EndSplineSet
EndChar

StartChar: comma
Encoding: 44 44 15
Width: 2048
GlyphClass: 1
Flags: W
LayerCount: 2
Fore
SplineSet
832 576 m 1,0,-1
 1216 576 l 1,1,-1
 1216 192 l 1,2,-1
 1024 -128 l 1,3,-1
 832 -128 l 1,4,-1
 1024 192 l 1,5,-1
 832 192 l 1,6,-1
 832 576 l 1,0,-1
EndSplineSet
EndChar

StartChar: hyphen
Encoding: 45 45 16
Width: 2048
GlyphClass: 1
Flags: W
LayerCount: 2
Fore
SplineSet
192 960 m 1,0,-1
 1856 960 l 1,1,2
 1856 669 1856 669 1856 704 c 1,3,4
 1855 704 1855 704 192 704 c 1,5,-1
 192 960 l 1,0,-1
EndSplineSet
EndChar

StartChar: period
Encoding: 46 46 17
Width: 2048
GlyphClass: 1
Flags: W
LayerCount: 2
Fore
SplineSet
832 874 m 5,0,-1
 1216 874 l 5,1,-1
 1216 490 l 5,2,-1
 832 490 l 5,3,-1
 832 874 l 5,0,-1
EndSplineSet
EndChar

StartChar: slash
Encoding: 47 47 18
Width: 2048
GlyphClass: 1
Flags: W
LayerCount: 2
Fore
SplineSet
1632 1664 m 1,0,-1
 728 0 l 1,1,-1
 432 0 l 1,2,-1
 1336 1664 l 1,3,-1
 1632 1664 l 1,0,-1
EndSplineSet
EndChar

StartChar: zero
Encoding: 48 48 19
Width: 2048
GlyphClass: 1
Flags: W
LayerCount: 2
Fore
SplineSet
192 960 m 0,0,1
 192 1664 192 1664 896 1664 c 0,2,3
 1024 1664 1024 1664 1152 1664 c 0,4,5
 1856 1664 1856 1664 1856 960 c 0,6,7
 1856 832 1856 832 1856 704 c 0,8,9
 1856 0 1856 0 1152 0 c 0,10,11
 1013 0 1013 0 896 0 c 0,12,13
 192 0 192 0 192 704 c 0,14,15
 192 864 192 864 192 960 c 0,0,1
448 992 m 0,16,17
 448 832 448 832 447 671 c 0,18,19
 448 256 448 256 858 256 c 0,20,21
 1024 256 1024 256 1184 256 c 0,22,23
 1600 256 1600 256 1600 672 c 0,24,25
 1600 800 1600 800 1602 996 c 0,26,27
 1600 1408 1600 1408 1184 1408 c 0,28,29
 1056 1408 1056 1408 864 1408 c 0,30,31
 448 1408 448 1408 448 992 c 0,16,17
1408 1408 m 1,32,-1
 1600 1216 l 1,33,-1
 640 256 l 1,34,-1
 448 448 l 1,35,-1
 1408 1408 l 1,32,-1
EndSplineSet
EndChar

StartChar: one
Encoding: 49 49 20
Width: 2048
GlyphClass: 1
Flags: W
LayerCount: 2
Fore
SplineSet
192 0 m 1,0,-1
 192 256 l 1,1,-1
 896 256 l 1,2,-1
 896 1344 l 1,3,-1
 576 1088 l 1,4,-1
 576 1408 l 1,5,-1
 896 1664 l 1,6,-1
 1152 1664 l 1,7,-1
 1152 1408 l 1,8,-1
 1152 256 l 1,9,-1
 1856 256 l 1,10,-1
 1856 0 l 1,11,-1
 192 0 l 1,0,-1
EndSplineSet
EndChar

StartChar: two
Encoding: 50 50 21
Width: 2048
GlyphClass: 1
Flags: W
LayerCount: 2
Fore
SplineSet
384 1216 m 1,0,-1
 192 1408 l 1,1,2
 434 1664 434 1664 1024 1664 c 0,3,4
 1856 1664 1856 1664 1856 1088 c 0,5,6
 1856 736 1856 736 576 256 c 1,7,-1
 1856 256 l 1,8,-1
 1856 0 l 1,9,-1
 192 0 l 1,10,-1
 192 352 l 1,11,12
 1664 928 1664 928 1600 1168 c 128,-1,13
 1536 1408 1536 1408 1024 1408 c 0,14,15
 496 1408 496 1408 384 1216 c 1,0,-1
EndSplineSet
EndChar

StartChar: three
Encoding: 51 51 22
Width: 2048
GlyphClass: 1
Flags: W
LayerCount: 2
Fore
SplineSet
192 0 m 1,0,-1
 192 256 l 1,1,-1
 448 704 l 1,2,-1
 448 960 l 1,3,-1
 192 1408 l 1,4,-1
 192 1664 l 1,5,-1
 1376 1664 l 2,6,7
 1856 1664 1856 1664 1856 1216 c 0,8,9
 1856 832 1856 832 1536 832 c 1,10,11
 1856 832 1856 832 1856 416 c 128,-1,12
 1856 0 1856 0 1376 0 c 2,13,-1
 192 0 l 1,0,-1
192 1408 m 1,14,-1
 448 960 l 1,15,-1
 1376 960 l 2,16,17
 1600 960 1600 960 1600 1184 c 128,-1,18
 1600 1408 1600 1408 1408 1408 c 0,19,20
 896 1408 896 1408 192 1408 c 1,14,-1
448 704 m 1,21,-1
 192 256 l 1,22,-1
 1408 256 l 2,23,24
 1600 256 1600 256 1600 480 c 128,-1,25
 1600 704 1600 704 1376 704 c 0,26,27
 896 704 896 704 448 704 c 1,21,-1
EndSplineSet
EndChar

StartChar: four
Encoding: 52 52 23
Width: 2048
GlyphClass: 1
Flags: W
LayerCount: 2
Fore
SplineSet
1600 0 m 1,0,-1
 1600 512 l 1,1,-1
 1856 512 l 1,2,-1
 1856 768 l 1,3,-1
 1600 768 l 1,4,-1
 1600 1664 l 1,5,-1
 1280 1664 l 1,6,-1
 192 832 l 1,7,-1
 192 512 l 1,8,-1
 1344 512 l 1,9,-1
 1344 0 l 1,10,-1
 1600 0 l 1,0,-1
1344 768 m 1,11,-1
 512 768 l 1,12,-1
 1344 1344 l 1,13,-1
 1344 768 l 1,11,-1
EndSplineSet
EndChar

StartChar: five
Encoding: 53 53 24
Width: 2048
GlyphClass: 1
Flags: W
LayerCount: 2
Fore
SplineSet
384 448 m 1,0,-1
 192 256 l 1,1,2
 434 0 434 0 1024 0 c 0,3,4
 1856 0 1856 0 1856 576 c 256,5,6
 1856 1152 1856 1152 448 1152 c 1,7,-1
 448 1408 l 1,8,-1
 1856 1408 l 1,9,-1
 1856 1664 l 1,10,-1
 192 1664 l 1,11,-1
 192 960 l 1,12,13
 1664 896 1664 896 1600 576 c 128,-1,14
 1536 256 1536 256 1024 256 c 0,15,16
 496 256 496 256 384 448 c 1,0,-1
EndSplineSet
EndChar

StartChar: six
Encoding: 54 54 25
Width: 2048
GlyphClass: 1
Flags: W
LayerCount: 2
Fore
SplineSet
1344 1664 m 1,0,1
 192 1664 192 1664 192 832 c 128,-1,2
 192 0 192 0 640 0 c 2,3,-1
 1408 0 l 2,4,5
 1856 0 1856 0 1856 480 c 128,-1,6
 1856 960 1856 960 1408 960 c 0,7,8
 1280 960 1280 960 640 960 c 0,9,10
 416 960 416 960 488 1096 c 128,-1,11
 560 1232 560 1232 768 1320 c 128,-1,12
 976 1408 976 1408 1344 1408 c 1,13,14
 1344 1536 1344 1536 1344 1664 c 1,0,1
640 256 m 0,15,16
 544 256 544 256 480 480 c 128,-1,17
 416 704 416 704 640 704 c 2,18,-1
 1408 704 l 2,19,20
 1600 704 1600 704 1600 480 c 128,-1,21
 1600 256 1600 256 1408 256 c 0,22,23
 896 256 896 256 640 256 c 0,15,16
EndSplineSet
EndChar

StartChar: seven
Encoding: 55 55 26
Width: 2048
GlyphClass: 1
Flags: W
LayerCount: 2
Fore
SplineSet
1856 1664 m 1,0,-1
 952 0 l 1,1,-1
 656 0 l 1,2,-1
 1424 1408 l 1,3,-1
 192 1408 l 1,4,-1
 192 1664 l 1,5,-1
 1856 1664 l 1,0,-1
EndSplineSet
EndChar

StartChar: eight
Encoding: 56 56 27
Width: 2048
GlyphClass: 1
Flags: W
LayerCount: 2
Fore
SplineSet
672 0 m 2,0,1
 192 0 192 0 192 416 c 128,-1,2
 192 832 192 832 512 832 c 1,3,4
 192 832 192 832 192 1248 c 128,-1,5
 192 1664 192 1664 672 1664 c 2,6,-1
 1376 1664 l 2,7,8
 1856 1664 1856 1664 1856 1216 c 0,9,10
 1856 832 1856 832 1536 832 c 1,11,12
 1856 832 1856 832 1856 416 c 128,-1,13
 1856 0 1856 0 1376 0 c 2,14,-1
 672 0 l 2,0,1
640 1408 m 0,15,16
 448 1408 448 1408 448 1184 c 128,-1,17
 448 960 448 960 672 960 c 2,18,-1
 1376 960 l 2,19,20
 1600 960 1600 960 1600 1184 c 128,-1,21
 1600 1408 1600 1408 1408 1408 c 0,22,23
 896 1408 896 1408 640 1408 c 0,15,16
672 704 m 256,24,25
 448 704 448 704 448 480 c 128,-1,26
 448 256 448 256 640 256 c 2,27,-1
 1408 256 l 2,28,29
 1600 256 1600 256 1600 480 c 128,-1,30
 1600 704 1600 704 1376 704 c 0,31,32
 896 704 896 704 672 704 c 256,24,25
EndSplineSet
EndChar

StartChar: nine
Encoding: 57 57 28
Width: 2048
GlyphClass: 1
Flags: W
LayerCount: 2
Fore
SplineSet
704 0 m 1,0,1
 1856 0 1856 0 1856 832 c 128,-1,2
 1856 1664 1856 1664 1408 1664 c 2,3,-1
 640 1664 l 2,4,5
 192 1664 192 1664 192 1184 c 128,-1,6
 192 704 192 704 640 704 c 0,7,8
 768 704 768 704 1408 704 c 0,9,10
 1632 704 1632 704 1560 568 c 128,-1,11
 1488 432 1488 432 1280 344 c 128,-1,12
 1072 256 1072 256 704 256 c 1,13,14
 704 128 704 128 704 0 c 1,0,1
1408 1408 m 0,15,16
 1504 1408 1504 1408 1568 1184 c 128,-1,17
 1632 960 1632 960 1408 960 c 2,18,-1
 640 960 l 2,19,20
 448 960 448 960 448 1184 c 128,-1,21
 448 1408 448 1408 640 1408 c 0,22,23
 1152 1408 1152 1408 1408 1408 c 0,15,16
EndSplineSet
EndChar

StartChar: colon
Encoding: 58 58 29
Width: 2048
GlyphClass: 1
Flags: W
LayerCount: 2
Fore
SplineSet
832 1472 m 1,0,-1
 1216 1472 l 1,1,-1
 1216 1088 l 1,2,-1
 832 1088 l 1,3,-1
 832 1472 l 1,0,-1
832 576 m 1,4,-1
 1216 576 l 1,5,-1
 1216 192 l 1,6,-1
 832 192 l 1,7,-1
 832 576 l 1,4,-1
EndSplineSet
EndChar

StartChar: semicolon
Encoding: 59 59 30
Width: 2048
GlyphClass: 1
Flags: W
LayerCount: 2
Fore
SplineSet
832 1472 m 1,0,-1
 1216 1472 l 1,1,-1
 1216 1088 l 1,2,-1
 832 1088 l 1,3,-1
 832 1472 l 1,0,-1
832 576 m 1,4,-1
 1216 576 l 1,5,-1
 1216 192 l 1,6,-1
 1024 -128 l 1,7,-1
 832 -128 l 1,8,-1
 1024 192 l 1,9,-1
 832 192 l 1,10,-1
 832 576 l 1,4,-1
EndSplineSet
EndChar

StartChar: less
Encoding: 60 60 31
Width: 2048
GlyphClass: 1
Flags: W
LayerCount: 2
Fore
SplineSet
1856 1664 m 1,0,-1
 192 1024 l 1,1,-1
 192 640 l 1,2,-1
 1856 0 l 1,3,-1
 1856 272 l 1,4,-1
 416 832 l 1,5,-1
 1856 1392 l 1,6,-1
 1856 1664 l 1,0,-1
EndSplineSet
EndChar

StartChar: equal
Encoding: 61 61 32
Width: 2048
GlyphClass: 1
Flags: W
LayerCount: 2
Fore
SplineSet
192 1344 m 1,0,-1
 1856 1344 l 1,1,2
 1856 1053 1856 1053 1856 1088 c 1,3,4
 1855 1088 1855 1088 192 1088 c 1,5,-1
 192 1344 l 1,0,-1
192 576 m 1,6,-1
 1856 576 l 1,7,8
 1856 285 1856 285 1856 320 c 1,9,10
 1855 320 1855 320 192 320 c 1,11,-1
 192 576 l 1,6,-1
EndSplineSet
EndChar

StartChar: greater
Encoding: 62 62 33
Width: 2048
GlyphClass: 1
Flags: W
LayerCount: 2
Fore
SplineSet
192 1664 m 1,0,-1
 1856 1024 l 1,1,-1
 1856 640 l 1,2,-1
 192 0 l 1,3,-1
 192 272 l 1,4,-1
 1632 832 l 1,5,-1
 192 1392 l 1,6,-1
 192 1664 l 1,0,-1
EndSplineSet
EndChar

StartChar: question
Encoding: 63 63 34
Width: 2048
GlyphClass: 1
Flags: W
LayerCount: 2
Fore
SplineSet
384 1216 m 1,0,-1
 192 1408 l 1,1,2
 434 1664 434 1664 1024 1664 c 0,3,4
 1856 1664 1856 1664 1856 1152 c 256,5,6
 1856 640 1856 640 1152 640 c 1,7,-1
 1152 512 l 1,8,-1
 896 512 l 1,9,-1
 896 896 l 1,10,11
 1600 896 1600 896 1600 1152 c 128,-1,12
 1600 1408 1600 1408 1024 1408 c 0,13,14
 496 1408 496 1408 384 1216 c 1,0,-1
896 256 m 1,15,-1
 1152 256 l 1,16,-1
 1152 0 l 1,17,-1
 896 0 l 1,18,-1
 896 256 l 1,15,-1
EndSplineSet
EndChar

StartChar: at
Encoding: 64 64 35
Width: 2048
GlyphClass: 1
Flags: W
LayerCount: 2
Fore
SplineSet
1344 832 m 2,0,1
 1344 1152 1344 1152 1024 1151 c 0,2,3
 704 1152 704 1152 704 832 c 256,4,5
 704 512 704 512 1024 512 c 2,6,-1
 1856 512 l 1,7,8
 1856 1664 1856 1664 1024 1664 c 256,9,10
 192 1664 192 1664 192 896 c 0,11,12
 192 0 192 0 1024 0 c 2,13,-1
 1856 0 l 1,14,-1
 1856 256 l 1,15,-1
 1024 256 l 2,16,17
 448 256 448 256 448 832 c 256,18,19
 448 1408 448 1408 1024 1408 c 256,20,21
 1600 1408 1600 1408 1600 704 c 1,22,-1
 1344 704 l 1,23,-1
 1344 832 l 2,0,1
EndSplineSet
EndChar

StartChar: A
Encoding: 65 65 36
Width: 2048
GlyphClass: 1
Flags: W
LayerCount: 2
Fore
SplineSet
192 0 m 1,0,-1
 192 960 l 2,1,2
 192 1664 192 1664 896 1664 c 1,3,4
 1047 1668 1047 1668 1152 1664 c 1,5,6
 1856 1664 1856 1664 1856 960 c 0,7,8
 1856 768 1856 768 1856 0 c 1,9,-1
 1600 0 l 1,10,-1
 1600 704 l 1,11,-1
 448 704 l 1,12,-1
 448 0 l 1,13,-1
 192 0 l 1,0,-1
448 960 m 1,14,-1
 1600 960 l 1,15,-1
 1602 991 l 1,16,17
 1600 1408 1600 1408 1184 1409 c 0,18,19
 1124 1409 1124 1409 873 1410 c 0,20,21
 448 1408 448 1408 447 992 c 0,22,23
 449 961 449 961 448 960 c 1,14,-1
EndSplineSet
EndChar

StartChar: B
Encoding: 66 66 37
Width: 2048
GlyphClass: 1
Flags: W
LayerCount: 2
Fore
SplineSet
192 0 m 1,0,-1
 192 1664 l 1,1,-1
 1376 1664 l 2,2,3
 1856 1664 1856 1664 1856 1216 c 0,4,5
 1856 832 1856 832 1536 832 c 1,6,7
 1856 832 1856 832 1856 416 c 128,-1,8
 1856 0 1856 0 1376 0 c 2,9,-1
 192 0 l 1,0,-1
448 1408 m 1,10,-1
 448 960 l 1,11,-1
 1376 960 l 2,12,13
 1600 960 1600 960 1600 1184 c 128,-1,14
 1600 1408 1600 1408 1408 1408 c 0,15,16
 896 1408 896 1408 448 1408 c 1,10,-1
448 704 m 1,17,-1
 448 256 l 1,18,-1
 1408 256 l 2,19,20
 1600 256 1600 256 1600 480 c 128,-1,21
 1600 704 1600 704 1376 704 c 0,22,23
 896 704 896 704 448 704 c 1,17,-1
EndSplineSet
EndChar

StartChar: C
Encoding: 67 67 38
Width: 2048
GlyphClass: 1
Flags: W
LayerCount: 2
Fore
SplineSet
1856 1664 m 5,0,-1
 896 1664 l 6,1,2
 192 1663 192 1663 192 960 c 4,3,4
 192 864 192 864 192 704 c 4,5,6
 193 0 193 0 896 0 c 4,7,8
 1344 0 1344 0 1856 0 c 5,9,-1
 1856 256 l 5,10,-1
 864 256 l 6,11,12
 455 257 455 257 448 672 c 4,13,14
 448 800 448 800 448 992 c 4,15,16
 451 1418 451 1418 864 1408 c 5,17,18
 1248 1408 1248 1408 1856 1408 c 5,19,-1
 1856 1664 l 5,0,-1
EndSplineSet
EndChar

StartChar: D
Encoding: 68 68 39
Width: 2048
GlyphClass: 1
Flags: W
LayerCount: 2
Fore
SplineSet
192 0 m 1,0,-1
 192 1664 l 1,1,-1
 1088 1664 l 2,2,3
 1856 1664 1856 1664 1856 832 c 256,4,5
 1856 0 1856 0 1088 0 c 0,6,7
 704 0 704 0 192 0 c 1,0,-1
448 1408 m 1,8,-1
 448 256 l 1,9,-1
 1184 256 l 2,10,11
 1600 256 1600 256 1600 832 c 128,-1,12
 1600 1408 1600 1408 1184 1408 c 0,13,14
 704 1408 704 1408 448 1408 c 1,8,-1
EndSplineSet
EndChar

StartChar: E
Encoding: 69 69 40
Width: 2048
GlyphClass: 1
Flags: W
LayerCount: 2
Fore
SplineSet
1856 1664 m 5,0,-1
 896 1664 l 6,1,2
 192 1663 192 1663 192 960 c 4,3,4
 192 864 192 864 192 704 c 4,5,6
 193 0 193 0 896 0 c 4,7,8
 1344 0 1344 0 1856 0 c 5,9,-1
 1856 256 l 5,10,-1
 864 256 l 5,11,12
 455 289 455 289 448 704 c 5,13,14
 1344 704 1344 704 1600 704 c 5,15,16
 1600 832 1600 832 1600 960 c 5,17,18
 1152 960 1152 960 448 960 c 5,19,20
 451 1386 451 1386 864 1408 c 5,21,22
 1248 1408 1248 1408 1856 1408 c 5,23,-1
 1856 1664 l 5,0,-1
EndSplineSet
EndChar

StartChar: F
Encoding: 70 70 41
Width: 2048
GlyphClass: 1
Flags: W
LayerCount: 2
Fore
SplineSet
192 0 m 1,0,-1
 192 1664 l 1,1,-1
 1856 1664 l 1,2,-1
 1856 1408 l 1,3,-1
 448 1408 l 1,4,-1
 448 960 l 1,5,-1
 1600 960 l 1,6,-1
 1600 704 l 1,7,-1
 448 704 l 1,8,-1
 448 0 l 1,9,-1
 192 0 l 1,0,-1
EndSplineSet
EndChar

StartChar: G
Encoding: 71 71 42
Width: 2048
GlyphClass: 1
Flags: W
LayerCount: 2
Fore
SplineSet
1856 1665 m 1,0,-1
 896 1665 l 2,1,2
 192 1664 192 1664 192 961 c 0,3,4
 192 865 192 865 192 705 c 0,5,6
 193 1 193 1 896 1 c 0,7,8
 1344 1 1344 1 1856 1 c 1,9,-1
 1856 961 l 1,10,-1
 1088 961 l 1,11,-1
 1088 705 l 1,12,-1
 1600 705 l 1,13,-1
 1600 257 l 1,14,-1
 864 257 l 2,15,16
 455 258 455 258 448 673 c 0,17,18
 448 801 448 801 448 993 c 0,19,20
 451 1419 451 1419 864 1409 c 1,21,22
 1248 1409 1248 1409 1856 1409 c 1,23,-1
 1856 1665 l 1,0,-1
EndSplineSet
EndChar

StartChar: H
Encoding: 72 72 43
Width: 2048
GlyphClass: 1
Flags: W
LayerCount: 2
Fore
SplineSet
192 0 m 1,0,-1
 192 1664 l 1,1,-1
 448 1664 l 1,2,-1
 448 960 l 1,3,-1
 1600 960 l 1,4,-1
 1600 1664 l 1,5,-1
 1856 1664 l 1,6,-1
 1856 0 l 1,7,-1
 1600 0 l 1,8,-1
 1600 704 l 1,9,-1
 448 704 l 1,10,-1
 448 0 l 1,11,-1
 192 0 l 1,0,-1
EndSplineSet
EndChar

StartChar: I
Encoding: 73 73 44
Width: 2048
GlyphClass: 1
Flags: W
LayerCount: 2
Fore
SplineSet
192 0 m 1,0,-1
 192 256 l 1,1,-1
 896 256 l 1,2,-1
 896 1408 l 1,3,-1
 192 1408 l 1,4,-1
 192 1664 l 1,5,-1
 1856 1664 l 1,6,-1
 1856 1408 l 1,7,-1
 1152 1408 l 1,8,-1
 1152 256 l 1,9,-1
 1856 256 l 1,10,-1
 1856 0 l 1,11,-1
 192 0 l 1,0,-1
EndSplineSet
EndChar

StartChar: J
Encoding: 74 74 45
Width: 2048
GlyphClass: 1
Flags: W
LayerCount: 2
Fore
SplineSet
192 0 m 1,0,-1
 1152 0 l 2,1,2
 1856 0 1856 0 1856 704 c 0,3,4
 1856 1024 1856 1024 1856 1664 c 1,5,-1
 1600 1664 l 1,6,7
 1600 1152 1600 1152 1600 672 c 0,8,9
 1600 256 1600 256 1184 256 c 2,10,-1
 192 256 l 1,11,-1
 192 0 l 1,0,-1
EndSplineSet
EndChar

StartChar: K
Encoding: 75 75 46
Width: 2048
GlyphClass: 1
Flags: W
LayerCount: 2
Fore
SplineSet
192 0 m 1,0,-1
 192 1664 l 1,1,-1
 448 1664 l 1,2,-1
 448 960 l 1,3,-1
 1424 1664 l 1,4,-1
 1856 1664 l 1,5,-1
 720 832 l 1,6,-1
 1856 0 l 1,7,-1
 1424 0 l 1,8,-1
 448 704 l 1,9,-1
 448 0 l 1,10,-1
 192 0 l 1,0,-1
EndSplineSet
EndChar

StartChar: L
Encoding: 76 76 47
Width: 2048
GlyphClass: 1
Flags: W
LayerCount: 2
Fore
SplineSet
192 0 m 1,0,-1
 192 1664 l 1,1,-1
 448 1664 l 1,2,-1
 448 256 l 1,3,-1
 1856 256 l 1,4,-1
 1856 0 l 1,5,-1
 192 0 l 1,0,-1
EndSplineSet
EndChar

StartChar: M
Encoding: 77 77 48
Width: 2048
GlyphClass: 1
Flags: W
LayerCount: 2
Fore
SplineSet
192 0 m 1,0,-1
 192 1664 l 1,1,-1
 544 1664 l 1,2,-1
 1024 896 l 1,3,-1
 1504 1664 l 1,4,-1
 1856 1664 l 1,5,-1
 1856 0 l 1,6,-1
 1600 0 l 1,7,8
 1600 576 1600 576 1600 1344 c 1,9,10
 1408 1024 1408 1024 1216 704 c 1,11,-1
 832 704 l 1,12,-1
 449 1340 l 1,13,-1
 448 0 l 1,14,-1
 192 0 l 1,0,-1
EndSplineSet
EndChar

StartChar: N
Encoding: 78 78 49
Width: 2048
GlyphClass: 1
Flags: W
LayerCount: 2
Fore
SplineSet
192 0 m 1,0,-1
 192 1664 l 1,1,-1
 512 1664 l 1,2,-1
 1600 320 l 1,3,-1
 1600 1664 l 1,4,-1
 1856 1664 l 1,5,-1
 1856 0 l 1,6,-1
 1536 0 l 1,7,-1
 447 1343 l 1,8,-1
 448 0 l 1,9,-1
 192 0 l 1,0,-1
EndSplineSet
EndChar

StartChar: O
Encoding: 79 79 50
Width: 2048
GlyphClass: 1
Flags: W
LayerCount: 2
Fore
SplineSet
192 960 m 0,0,1
 192 1664 192 1664 896 1664 c 0,2,3
 1024 1664 1024 1664 1152 1664 c 0,4,5
 1856 1664 1856 1664 1856 960 c 0,6,7
 1856 832 1856 832 1856 704 c 0,8,9
 1856 0 1856 0 1152 0 c 0,10,11
 1013 0 1013 0 896 0 c 0,12,13
 192 0 192 0 192 704 c 0,14,15
 192 864 192 864 192 960 c 0,0,1
448 992 m 0,16,17
 448 832 448 832 447 671 c 0,18,19
 448 256 448 256 858 256 c 0,20,21
 1024 256 1024 256 1184 256 c 0,22,23
 1600 256 1600 256 1600 672 c 0,24,25
 1600 800 1600 800 1602 996 c 0,26,27
 1600 1408 1600 1408 1184 1408 c 0,28,29
 1056 1408 1056 1408 864 1408 c 0,30,31
 448 1408 448 1408 448 992 c 0,16,17
EndSplineSet
EndChar

StartChar: P
Encoding: 80 80 51
Width: 2048
GlyphClass: 1
Flags: W
LayerCount: 2
Fore
SplineSet
192 0 m 1,0,-1
 192 1664 l 1,1,-1
 1408 1664 l 2,2,3
 1856 1664 1856 1664 1856 1184 c 128,-1,4
 1856 704 1856 704 1408 704 c 0,5,6
 1280 704 1280 704 448 704 c 1,7,8
 448 576 448 576 448 416 c 128,-1,9
 448 256 448 256 448 0 c 1,10,11
 320 0 320 0 192 0 c 1,0,-1
448 1408 m 1,12,-1
 448 960 l 1,13,-1
 1408 960 l 2,14,15
 1600 960 1600 960 1600 1184 c 128,-1,16
 1600 1408 1600 1408 1408 1408 c 0,17,18
 896 1408 896 1408 448 1408 c 1,12,-1
EndSplineSet
EndChar

StartChar: Q
Encoding: 81 81 52
Width: 2048
GlyphClass: 1
Flags: W
LayerCount: 2
Fore
SplineSet
192 960 m 0,0,1
 192 1664 192 1664 896 1664 c 0,2,3
 1024 1664 1024 1664 1152 1664 c 0,4,5
 1856 1664 1856 1664 1856 960 c 0,6,7
 1856 832 1856 832 1856 704 c 1,8,-1
 1808 368 l 1,9,-1
 1760 272 l 1,10,-1
 1856 176 l 1,11,12
 1776 96 1776 96 1680 0 c 1,13,-1
 1584 96 l 1,14,-1
 1520 64 l 1,15,-1
 1152 0 l 1,16,17
 1013 0 1013 0 896 0 c 0,18,19
 192 0 192 0 192 704 c 0,20,21
 192 864 192 864 192 960 c 0,0,1
448 992 m 0,22,23
 448 832 448 832 447 671 c 0,24,25
 448 256 448 256 858 256 c 0,26,27
 1024 256 1024 256 1184 256 c 1,28,-1
 1344 288 l 1,29,-1
 1376 304 l 1,30,-1
 1216 464 l 1,31,32
 1328 576 1328 576 1392 640 c 1,33,-1
 1552 480 l 1,34,-1
 1584 544 l 1,35,-1
 1600 672 l 1,36,37
 1600 800 1600 800 1602 996 c 0,38,39
 1600 1408 1600 1408 1184 1408 c 0,40,41
 1056 1408 1056 1408 864 1408 c 0,42,43
 448 1408 448 1408 448 992 c 0,22,23
EndSplineSet
EndChar

StartChar: R
Encoding: 82 82 53
Width: 2048
GlyphClass: 1
Flags: W
LayerCount: 2
Fore
SplineSet
192 0 m 1,0,-1
 192 1664 l 1,1,-1
 1408 1664 l 2,2,3
 1856 1664 1856 1664 1856 1216 c 0,4,5
 1856 704 1856 704 1408 704 c 0,6,7
 1280 704 1280 704 1088 704 c 1,8,-1
 1856 0 l 1,9,-1
 1472 0 l 1,10,-1
 704 704 l 1,11,-1
 448 704 l 1,12,13
 448 576 448 576 448 416 c 128,-1,14
 448 256 448 256 448 0 c 1,15,16
 320 0 320 0 192 0 c 1,0,-1
448 1408 m 1,17,-1
 448 960 l 1,18,-1
 1408 960 l 2,19,20
 1600 960 1600 960 1600 1184 c 128,-1,21
 1600 1408 1600 1408 1408 1408 c 0,22,23
 896 1408 896 1408 448 1408 c 1,17,-1
EndSplineSet
EndChar

StartChar: S
Encoding: 83 83 54
Width: 2048
GlyphClass: 1
Flags: W
LayerCount: 2
Fore
SplineSet
1856 1408 m 1,0,-1
 640 1408 l 2,1,2
 448 1408 448 1408 448 1184 c 128,-1,3
 448 960 448 960 640 960 c 2,4,-1
 1408 960 l 2,5,6
 1856 960 1856 960 1856 480 c 128,-1,7
 1856 0 1856 0 1408 0 c 2,8,-1
 192 0 l 1,9,-1
 192 256 l 1,10,-1
 1408 256 l 2,11,12
 1600 256 1600 256 1600 480 c 128,-1,13
 1600 704 1600 704 1408 704 c 2,14,-1
 640 704 l 2,15,16
 192 704 192 704 192 1184 c 128,-1,17
 192 1664 192 1664 640 1664 c 2,18,-1
 1856 1664 l 1,19,-1
 1856 1408 l 1,0,-1
EndSplineSet
EndChar

StartChar: T
Encoding: 84 84 55
Width: 2048
GlyphClass: 1
Flags: W
LayerCount: 2
Fore
SplineSet
192 1664 m 1,0,-1
 1856 1664 l 1,1,-1
 1856 1408 l 1,2,-1
 1152 1408 l 1,3,-1
 1152 0 l 1,4,-1
 896 0 l 1,5,-1
 896 1408 l 1,6,-1
 192 1408 l 1,7,-1
 192 1664 l 1,0,-1
EndSplineSet
EndChar

StartChar: U
Encoding: 85 85 56
Width: 2048
GlyphClass: 1
Flags: W
LayerCount: 2
Fore
SplineSet
192 1664 m 1,0,-1
 192 672 l 2,1,2
 192 0 192 0 1024 0 c 256,3,4
 1856 0 1856 0 1856 672 c 2,5,-1
 1856 1664 l 1,6,-1
 1600 1664 l 1,7,-1
 1600 640 l 2,8,9
 1600 256 1600 256 1024 256 c 256,10,11
 448 256 448 256 448 640 c 2,12,-1
 448 1664 l 1,13,-1
 192 1664 l 1,0,-1
EndSplineSet
EndChar

StartChar: V
Encoding: 86 86 57
Width: 2048
GlyphClass: 1
Flags: W
LayerCount: 2
Fore
SplineSet
192 1664 m 1,0,1
 192 1664 192 1664 832 0 c 1,2,-1
 1216 0 l 1,3,-1
 1856 1664 l 1,4,-1
 1584 1664 l 1,5,-1
 1024 224 l 1,6,7
 1024 224 1024 224 464 1664 c 1,8,9
 352 1664 352 1664 192 1664 c 1,0,1
EndSplineSet
EndChar

StartChar: W
Encoding: 87 87 58
Width: 2048
GlyphClass: 1
Flags: W
LayerCount: 2
Fore
SplineSet
192 1664 m 1,0,-1
 192 0 l 1,1,-1
 544 0 l 1,2,3
 1024 768 1024 768 1024 768 c 1,4,-1
 1504 0 l 1,5,-1
 1856 0 l 1,6,-1
 1856 1664 l 1,7,-1
 1600 1664 l 1,8,-1
 1600 320 l 1,9,-1
 1216 960 l 1,10,-1
 832 960 l 1,11,-1
 448 320 l 1,12,-1
 448 1664 l 1,13,-1
 192 1664 l 1,0,-1
EndSplineSet
EndChar

StartChar: X
Encoding: 88 88 59
Width: 2048
GlyphClass: 1
Flags: W
LayerCount: 2
Fore
SplineSet
192 1664 m 1,0,-1
 832 832 l 1,1,-1
 192 0 l 1,2,-1
 512 0 l 1,3,-1
 1024 640 l 1,4,-1
 1536 0 l 1,5,-1
 1856 0 l 1,6,-1
 1216 832 l 1,7,-1
 1856 1664 l 1,8,-1
 1536 1664 l 1,9,-1
 1024 1024 l 1,10,-1
 512 1664 l 1,11,-1
 192 1664 l 1,0,-1
EndSplineSet
EndChar

StartChar: Y
Encoding: 89 89 60
Width: 2048
GlyphClass: 1
Flags: W
LayerCount: 2
Fore
SplineSet
192 1664 m 1,0,-1
 896 896 l 1,1,-1
 896 0 l 1,2,-1
 1152 0 l 1,3,-1
 1152 896 l 1,4,-1
 1856 1664 l 1,5,-1
 1504 1664 l 1,6,-1
 1024 1136 l 1,7,-1
 544 1664 l 1,8,-1
 192 1664 l 1,0,-1
EndSplineSet
EndChar

StartChar: Z
Encoding: 90 90 61
Width: 2048
GlyphClass: 1
Flags: W
LayerCount: 2
Fore
SplineSet
192 1408 m 1,0,-1
 192 1664 l 1,1,-1
 1856 1664 l 1,2,-1
 1856 1344 l 1,3,-1
 512 256 l 1,4,-1
 1856 256 l 1,5,-1
 1856 0 l 1,6,-1
 192 0 l 1,7,-1
 192 320 l 1,8,-1
 1536 1408 l 1,9,-1
 192 1408 l 1,0,-1
EndSplineSet
EndChar

StartChar: bracketleft
Encoding: 91 91 62
Width: 2048
GlyphClass: 1
Flags: W
LayerCount: 2
Fore
SplineSet
1344 1792 m 1,0,-1
 704 1792 l 1,1,-1
 704 -128 l 1,2,-1
 1344 -128 l 1,3,-1
 1344 128 l 1,4,-1
 960 128 l 1,5,-1
 960 1536 l 1,6,-1
 1344 1536 l 1,7,-1
 1344 1792 l 1,0,-1
EndSplineSet
EndChar

StartChar: backslash
Encoding: 92 92 63
Width: 2048
GlyphClass: 1
Flags: W
LayerCount: 2
Fore
SplineSet
432 1664 m 1,0,-1
 1336 0 l 1,1,-1
 1632 0 l 1,2,-1
 728 1664 l 1,3,-1
 432 1664 l 1,0,-1
EndSplineSet
EndChar

StartChar: bracketright
Encoding: 93 93 64
Width: 2048
GlyphClass: 1
Flags: W
LayerCount: 2
Fore
SplineSet
704 1792 m 1,0,-1
 1344 1792 l 1,1,-1
 1344 -128 l 1,2,-1
 704 -128 l 1,3,-1
 704 128 l 1,4,-1
 1088 128 l 1,5,-1
 1088 1536 l 1,6,-1
 704 1536 l 1,7,-1
 704 1792 l 1,0,-1
EndSplineSet
EndChar

StartChar: asciicircum
Encoding: 94 94 65
Width: 2048
GlyphClass: 1
Flags: W
LayerCount: 2
Fore
SplineSet
512 832 m 1,0,1
 512 832 512 832 832 1664 c 1,2,-1
 1216 1664 l 1,3,-1
 1536 832 l 1,4,-1
 1264 832 l 1,5,-1
 1024 1440 l 1,6,7
 1024 1440 1024 1440 784 832 c 1,8,9
 672 832 672 832 512 832 c 1,0,1
EndSplineSet
EndChar

StartChar: underscore
Encoding: 95 95 66
Width: 2048
GlyphClass: 1
Flags: W
LayerCount: 2
Fore
SplineSet
192 256 m 1,0,-1
 1856 256 l 1,1,2
 1856 -35 1856 -35 1856 0 c 1,3,4
 1855 0 1855 0 192 0 c 1,5,-1
 192 256 l 1,0,-1
EndSplineSet
EndChar

StartChar: grave
Encoding: 96 96 67
Width: 2048
GlyphClass: 1
Flags: W
LayerCount: 2
Fore
SplineSet
1216 1664 m 1,0,-1
 832 1664 l 1,1,-1
 832 1280 l 1,2,-1
 1024 1280 l 1,3,-1
 1216 960 l 1,4,-1
 1408 960 l 1,5,-1
 1216 1280 l 1,6,-1
 1216 1664 l 1,0,-1
EndSplineSet
EndChar

StartChar: a
Encoding: 97 97 68
Width: 2048
GlyphClass: 1
Flags: W
LayerCount: 2
Fore
SplineSet
436 1568 m 1024,0,-1
436 96 m 1024,1,-1
1588 96 m 1024,2,-1
920 1468 m 25,3,-1
 928 1080 l 25,4,-1
 1412 1112 l 25,5,-1
 1416 1456 l 25,6,-1
 920 1468 l 25,3,-1
1162 454 m 1,7,-1
 1402 454 l 1,8,-1
 1402 0 l 1,9,-1
 1162 0 l 1,10,-1
 1162 454 l 1,7,-1
539 1579 m 1,11,-1
 1415 1579 l 1,12,-1
 1415 457 l 1,13,-1
 539 457 l 1,14,-1
 539 1579 l 1,11,-1
542 454 m 1,15,-1
 782 454 l 1,16,-1
 782 0 l 1,17,-1
 542 0 l 1,18,-1
 542 454 l 1,15,-1
296 1285 m 1,19,-1
 542 1285 l 1,20,-1
 542 301 l 1,21,-1
 296 301 l 1,22,-1
 296 1285 l 1,19,-1
EndSplineSet
EndChar

StartChar: b
Encoding: 98 98 69
Width: 2048
GlyphClass: 1
Flags: W
LayerCount: 2
Fore
SplineSet
1141 1082 m 1,0,-1
 1142 953 l 1,1,-1
 1264 955 l 1,2,-1
 1264 1081 l 1,3,-1
 1141 1082 l 1,0,-1
952 1082 m 1,4,-1
 953 953 l 1,5,-1
 1075 955 l 1,6,-1
 1075 1081 l 1,7,-1
 952 1082 l 1,4,-1
834 1104 m 1,8,-1
 816 920 l 1,9,-1
 1366 928 l 1,10,-1
 1390 1100 l 1,11,-1
 834 1104 l 1,8,-1
1130 1356 m 1,12,-1
 1222 1356 l 1,13,-1
 1222 1156 l 1,14,-1
 1130 1156 l 1,15,-1
 1130 1356 l 1,12,-1
810 1352 m 1,16,-1
 898 1352 l 1,17,-1
 898 1176 l 1,18,-1
 810 1176 l 1,19,-1
 810 1352 l 1,16,-1
1174 402 m 1,20,-1
 1318 402 l 1,21,-1
 1318 210 l 1,22,-1
 1174 210 l 1,23,-1
 1174 402 l 1,20,-1
774 406 m 1,24,-1
 914 406 l 1,25,-1
 914 218 l 1,26,-1
 774 218 l 1,27,-1
 774 406 l 1,24,-1
1678 1256 m 1,28,-1
 1766 1256 l 1,29,-1
 1766 1004 l 1,30,-1
 1678 1004 l 1,31,-1
 1678 1256 l 1,28,-1
286 1276 m 1,32,-1
 378 1276 l 1,33,-1
 378 1032 l 1,34,-1
 286 1032 l 1,35,-1
 286 1276 l 1,32,-1
378 1172 m 1,36,-1
 1682 1172 l 1,37,-1
 1682 884 l 1,38,-1
 378 884 l 1,39,-1
 378 1172 l 1,36,-1
538 884 m 1,40,-1
 1598 884 l 1,41,-1
 1598 660 l 1,42,-1
 538 660 l 1,43,-1
 538 884 l 1,40,-1
666 1244 m 1,44,-1
 1430 1244 l 1,45,-1
 1433 409 l 1,46,-1
 669 409 l 1,47,-1
 666 1244 l 1,44,-1
292 95 m 1024,48,-1
288 96 m 1024,49,-1
EndSplineSet
EndChar

StartChar: c
Encoding: 99 99 70
Width: 2048
GlyphClass: 1
Flags: W
LayerCount: 2
Fore
SplineSet
436 1538 m 1028,0,-1
436 66 m 1028,1,-1
1588 66 m 1028,2,-1
1413 1304 m 30,3,-1
 1768 1103 l 30,4,-1
 1410 902 l 30,5,-1
 1413 1304 l 30,3,-1
1412 1112 m 5,6,-1
 1416 1456 l 1029,7,-1
1162 454 m 5,8,-1
 1402 454 l 5,9,-1
 1402 0 l 5,10,-1
 1162 0 l 5,11,-1
 1162 454 l 5,8,-1
539 1579 m 5,12,-1
 1415 1579 l 5,13,-1
 1415 457 l 5,14,-1
 539 457 l 5,15,-1
 539 1579 l 5,12,-1
542 454 m 5,16,-1
 782 454 l 5,17,-1
 782 0 l 5,18,-1
 542 0 l 5,19,-1
 542 454 l 5,16,-1
EndSplineSet
EndChar

StartChar: d
Encoding: 100 100 71
Width: 2048
GlyphClass: 1
Flags: W
LayerCount: 2
Fore
SplineSet
368 1644 m 5,0,-1
 372 120 l 5,1,-1
 1860 124 l 5,2,-1
 1852 1644 l 5,3,-1
 368 1644 l 5,0,-1
208 1748 m 5,4,-1
 1968 1748 l 5,5,-1
 1968 36 l 5,6,-1
 228 24 l 5,7,-1
 208 1748 l 5,4,-1
436 1568 m 1028,8,-1
436 96 m 1028,9,-1
1588 96 m 1028,10,-1
1371.41992188 1295.40039062 m 30,11,-1
 1694.46972656 1130.58007812 l 30,12,-1
 1368.69042969 965.759765625 l 30,13,-1
 1371.41992188 1295.40039062 l 30,11,-1
1370.50976562 1137.95996094 m 5,14,-1
 1374.15039062 1420.04003906 l 1029,15,-1
1143.00976562 598.400390625 m 5,16,-1
 1361.41015625 598.400390625 l 5,17,-1
 1361.41015625 226.120117188 l 5,18,-1
 1143.00976562 226.120117188 l 5,19,-1
 1143.00976562 598.400390625 l 5,16,-1
576.080078125 1520.90039062 m 5,20,-1
 1373.24023438 1520.90039062 l 5,21,-1
 1373.24023438 600.860351562 l 5,22,-1
 576.080078125 600.860351562 l 5,23,-1
 576.080078125 1520.90039062 l 5,20,-1
578.809570312 598.400390625 m 5,24,-1
 797.209960938 598.400390625 l 5,25,-1
 797.209960938 226.120117188 l 5,26,-1
 578.809570312 226.120117188 l 5,27,-1
 578.809570312 598.400390625 l 5,24,-1
EndSplineSet
EndChar

StartChar: e
Encoding: 101 101 72
Width: 2048
GlyphClass: 1
Flags: W
LayerCount: 2
Fore
SplineSet
1617.44042969 1565.79980469 m 5,0,-1
 926.240234375 1565.79980469 l 6,1,2
 419.360351562 1565 419.360351562 1565 419.360351562 1002.59960938 c 4,3,4
 419.360351562 925.799804688 419.360351562 925.799804688 419.360351562 797.799804688 c 4,5,6
 420.080078125 234.599609375 420.080078125 234.599609375 926.240234375 234.599609375 c 4,7,8
 1248.79980469 234.599609375 1248.79980469 234.599609375 1617.44042969 234.599609375 c 5,9,-1
 1617.44042969 439.400390625 l 5,10,-1
 903.200195312 439.400390625 l 5,11,12
 608.719726562 465.799804688 608.719726562 465.799804688 603.6796875 797.799804688 c 5,13,14
 1248.79980469 797.799804688 1248.79980469 797.799804688 1433.12011719 797.799804688 c 5,15,16
 1433.12011719 900.200195312 1433.12011719 900.200195312 1433.12011719 1002.59960938 c 5,17,18
 1110.55957031 1002.59960938 1110.55957031 1002.59960938 603.6796875 1002.59960938 c 5,19,20
 605.83984375 1343.40039062 605.83984375 1343.40039062 903.200195312 1361 c 5,21,22
 1179.6796875 1361 1179.6796875 1361 1617.44042969 1361 c 5,23,-1
 1617.44042969 1565.79980469 l 5,0,-1
208 1664 m 5,24,-1
 200 184 l 5,25,-1
 1816 176 l 5,26,-1
 1816 1660 l 5,27,-1
 208 1664 l 5,24,-1
0 1792 m 5,28,-1
 2048 1792 l 5,29,-1
 2048 0 l 5,30,-1
 0 0 l 5,31,-1
 0 1792 l 5,28,-1
EndSplineSet
EndChar

StartChar: f
Encoding: 102 102 73
Width: 2048
GlyphClass: 1
Flags: W
LayerCount: 2
Fore
SplineSet
208 1664 m 5,0,-1
 200 184 l 5,1,-1
 1816 176 l 5,2,-1
 1816 1660 l 5,3,-1
 208 1664 l 5,0,-1
0 1792 m 5,4,-1
 2048 1792 l 5,5,-1
 2048 0 l 5,6,-1
 0 0 l 5,7,-1
 0 1792 l 5,4,-1
490.012695312 210.202148438 m 5,8,-1
 490.012695312 1582.84277344 l 5,9,-1
 1597.69238281 1582.84277344 l 5,10,-1
 1597.69238281 1433.64257812 l 5,11,-1
 610.412109375 1433.64257812 l 5,12,-1
 610.412109375 971.122070312 l 5,13,-1
 1405.05273438 971.122070312 l 5,14,-1
 1405.05273438 821.922851562 l 5,15,-1
 610.412109375 821.922851562 l 5,16,-1
 610.412109375 210.202148438 l 5,17,-1
 490.012695312 210.202148438 l 5,8,-1
EndSplineSet
EndChar

StartChar: g
Encoding: 103 103 74
Width: 2048
GlyphClass: 1
Flags: W
LayerCount: 2
Fore
SplineSet
1189 689 m 5,0,-1
 1329 689 l 5,1,-1
 1329 619 l 5,2,-1
 1189 619 l 5,3,-1
 1189 689 l 5,0,-1
1329 619 m 1029,4,-1
679 689 m 5,5,-1
 819 689 l 5,6,-1
 819 619 l 5,7,-1
 679 619 l 5,8,-1
 679 689 l 5,5,-1
819 619 m 5,9,-1
 1184 619 l 5,10,-1
 1184 509 l 5,11,-1
 819 509 l 5,12,-1
 819 619 l 5,9,-1
1068 1229 m 1029,13,-1
1068 1229 m 5,14,-1
 1208 1229 l 5,15,-1
 1208 1059 l 5,16,-1
 1068 1059 l 5,17,-1
 1068 1229 l 5,14,-1
678 1229 m 1029,18,-1
678 1229 m 5,19,-1
 818 1229 l 5,20,-1
 818 1059 l 5,21,-1
 678 1059 l 5,22,-1
 678 1229 l 5,19,-1
494 1394 m 5,23,-1
 494 269 l 5,24,-1
 244 274 l 5,25,-1
 244 1399 l 5,26,-1
 494 1394 l 5,23,-1
494 1604 m 5,27,-1
 1509 1604 l 5,28,-1
 1509 1394 l 5,29,-1
 494 1394 l 5,30,-1
 494 1604 l 5,27,-1
1509 1394 m 5,31,-1
 1734 1399 l 5,32,-1
 1734 244 l 5,33,-1
 1509 239 l 5,34,-1
 1509 1394 l 5,31,-1
609 419 m 1029,35,-1
494 259 m 5,36,-1
 1529 259 l 5,37,-1
 1529 100 l 5,38,-1
 494 100 l 5,39,-1
 494 259 l 5,36,-1
EndSplineSet
EndChar

StartChar: h
Encoding: 104 104 75
Width: 2048
GlyphClass: 1
Flags: W
LayerCount: 2
Fore
SplineSet
1283 404 m 5,0,-1
 1523 404 l 5,1,-1
 1523 362 l 5,2,-1
 1283 362 l 5,3,-1
 1283 404 l 5,0,-1
1144 404 m 5,4,-1
 1283 404 l 5,5,-1
 1283 236 l 5,6,-1
 1144 236 l 5,7,-1
 1144 404 l 5,4,-1
895 868 m 5,8,-1
 895 742 l 5,9,-1
 1357 736 l 5,10,-1
 1363 844 l 5,11,-1
 895 868 l 5,8,-1
287 620 m 5,12,-1
 358 620 l 5,13,-1
 358 278 l 5,14,-1
 286 278 l 5,15,-1
 287 620 l 5,12,-1
358 728 m 5,16,-1
 496 728 l 5,17,-1
 496 -4 l 5,18,-1
 358 -4 l 5,19,-1
 358 728 l 5,16,-1
502 668 m 5,20,-1
 634 668 l 5,21,-1
 634 404 l 5,22,-1
 502 404 l 5,23,-1
 502 668 l 5,20,-1
1276 392 m 5,24,-1
 1534 392 l 5,25,-1
 1534 8 l 5,26,-1
 1276 8 l 5,27,-1
 1276 392 l 5,24,-1
562 404 m 5,28,-1
 1144 404 l 5,29,-1
 1144 -4 l 5,30,-1
 562 -4 l 5,31,-1
 562 404 l 5,28,-1
700 662 m 5,32,-1
 1468 662 l 5,33,-1
 1468 518 l 5,34,-1
 700 518 l 5,35,-1
 700 662 l 5,32,-1
628 1328 m 5,36,-1
 1546 1328 l 5,37,-1
 1546 656 l 5,38,-1
 628 656 l 5,39,-1
 628 1328 l 5,36,-1
364 1004 m 5,40,-1
 634 1004 l 5,41,-1
 634 842 l 5,42,-1
 364 842 l 5,43,-1
 364 1004 l 5,40,-1
364 1256 m 5,44,-1
 634 1256 l 5,45,-1
 634 1082 l 5,46,-1
 364 1082 l 5,47,-1
 364 1256 l 5,44,-1
1600 1348 m 1028,48,-1
1600 -124 m 1028,49,-1
448 -124 m 1028,50,-1
448 1348 m 1028,51,-1
EndSplineSet
EndChar

StartChar: i
Encoding: 105 105 76
Width: 2048
GlyphClass: 1
Flags: W
LayerCount: 2
Fore
SplineSet
368 1644 m 5,0,-1
 372 120 l 5,1,-1
 1860 124 l 5,2,-1
 1852 1644 l 5,3,-1
 368 1644 l 5,0,-1
208 1748 m 5,4,-1
 1968 1748 l 5,5,-1
 1968 36 l 5,6,-1
 228 24 l 5,7,-1
 208 1748 l 5,4,-1
753 624 m 5,8,-1
 513 624 l 5,9,-1
 513 582 l 5,10,-1
 753 582 l 5,11,-1
 753 624 l 5,8,-1
892 624 m 5,12,-1
 753 624 l 5,13,-1
 753 456 l 5,14,-1
 892 456 l 5,15,-1
 892 624 l 5,12,-1
1141 1088 m 5,16,-1
 1141 962 l 5,17,-1
 679 956 l 5,18,-1
 673 1064 l 5,19,-1
 1141 1088 l 5,16,-1
1749 840 m 5,20,-1
 1678 840 l 5,21,-1
 1678 498 l 5,22,-1
 1750 498 l 5,23,-1
 1749 840 l 5,20,-1
1678 948 m 5,24,-1
 1540 948 l 5,25,-1
 1540 216 l 5,26,-1
 1678 216 l 5,27,-1
 1678 948 l 5,24,-1
1534 888 m 5,28,-1
 1402 888 l 5,29,-1
 1402 624 l 5,30,-1
 1534 624 l 5,31,-1
 1534 888 l 5,28,-1
760 612 m 5,32,-1
 502 612 l 5,33,-1
 502 228 l 5,34,-1
 760 228 l 5,35,-1
 760 612 l 5,32,-1
1474 624 m 5,36,-1
 892 624 l 5,37,-1
 892 216 l 5,38,-1
 1474 216 l 5,39,-1
 1474 624 l 5,36,-1
1336 882 m 5,40,-1
 568 882 l 5,41,-1
 568 738 l 5,42,-1
 1336 738 l 5,43,-1
 1336 882 l 5,40,-1
1408 1548 m 5,44,-1
 490 1548 l 5,45,-1
 490 876 l 5,46,-1
 1408 876 l 5,47,-1
 1408 1548 l 5,44,-1
1672 1224 m 5,48,-1
 1402 1224 l 5,49,-1
 1402 1062 l 5,50,-1
 1672 1062 l 5,51,-1
 1672 1224 l 5,48,-1
1672 1476 m 5,52,-1
 1402 1476 l 5,53,-1
 1402 1302 l 5,54,-1
 1672 1302 l 5,55,-1
 1672 1476 l 5,52,-1
436 1568 m 1028,56,-1
436 96 m 1028,57,-1
1588 96 m 1028,58,-1
1588 1568 m 1028,59,-1
EndSplineSet
EndChar

StartChar: j
Encoding: 106 106 77
Width: 2048
GlyphClass: 1
Flags: W
LayerCount: 2
Fore
SplineSet
1611.57519531 718.509765625 m 29,0,-1
 1333.37988281 741.319335938 l 29,1,-1
 1320.17089844 470.599609375 l 29,2,-1
 1590.96875 470.599609375 l 29,3,-1
 1611.57519531 718.509765625 l 29,0,-1
1571 205 m 5,4,-1
 1571 -251 l 5,5,-1
 1331 -251 l 5,6,-1
 1331 205 l 5,7,-1
 1571 205 l 5,4,-1
515 1159 m 5,8,-1
 995 1159 l 5,9,-1
 995 947 l 5,10,-1
 515 947 l 5,11,-1
 515 1159 l 5,8,-1
679 555 m 5,12,-1
 679 1079 l 5,13,-1
 891 1083 l 5,14,-1
 891 559 l 5,15,-1
 679 555 l 5,12,-1
683 795 m 1029,16,-1
427 795 m 5,17,-1
 987 795 l 5,18,-1
 987 555 l 5,19,-1
 427 555 l 5,20,-1
 427 795 l 5,17,-1
431 3 m 5,21,-1
 427 795 l 5,22,-1
 683 795 l 5,23,-1
 687 3 l 5,24,-1
 431 3 l 5,21,-1
1718.91992188 859.240234375 m 5,25,-1
 1718.91992188 375.400390625 l 5,26,-1
 1184.87695312 375.400390625 l 5,27,-1
 1184.87695312 859.240234375 l 5,28,-1
 1718.91992188 859.240234375 l 5,25,-1
10 6 m 5,29,-1
 2058 5 l 5,30,-1
 2058 -255 l 5,31,-1
 10 -255 l 5,32,-1
 10 6 l 5,29,-1
10 1794 m 5,33,-1
 2058 1793 l 5,34,-1
 2058 1533 l 5,35,-1
 10 1533 l 5,36,-1
 10 1794 l 5,33,-1
2055 1797 m 5,37,-1
 2054 -251 l 5,38,-1
 1794 -251 l 5,39,-1
 1794 1797 l 5,40,-1
 2055 1797 l 5,37,-1
266 1797 m 5,41,-1
 265 -251 l 5,42,-1
 5 -251 l 5,43,-1
 5 1797 l 5,44,-1
 266 1797 l 5,41,-1
EndSplineSet
EndChar

StartChar: k
Encoding: 107 107 78
Width: 2048
GlyphClass: 1
Flags: W
LayerCount: 2
Fore
SplineSet
444.9296875 819.002929688 m 29,0,-1
 722.962890625 794.288085938 l 29,1,-1
 738.025390625 1064.91113281 l 29,2,-1
 467.233398438 1066.765625 l 29,3,-1
 444.9296875 819.002929688 l 29,0,-1
489.021484375 1332.22265625 m 5,4,-1
 492.14453125 1788.21191406 l 5,5,-1
 732.138671875 1786.56835938 l 5,6,-1
 729.015625 1330.57910156 l 5,7,-1
 489.021484375 1332.22265625 l 5,4,-1
1538.46289062 371.01171875 m 5,8,-1
 1058.47363281 374.299804688 l 5,9,-1
 1059.92578125 586.294921875 l 5,10,-1
 1539.9140625 583.006835938 l 5,11,-1
 1538.46289062 371.01171875 l 5,8,-1
1378.60351562 976.12109375 m 5,12,-1
 1375.01464844 452.133789062 l 5,13,-1
 1162.9921875 449.5859375 l 5,14,-1
 1166.58105469 973.573242188 l 5,15,-1
 1378.60351562 976.12109375 l 5,12,-1
1372.95898438 736.154296875 m 1029,16,-1
1628.953125 734.401367188 m 5,17,-1
 1068.96679688 738.236328125 l 5,18,-1
 1070.61035156 978.23046875 l 5,19,-1
 1630.59765625 974.395507812 l 5,20,-1
 1628.953125 734.401367188 l 5,17,-1
1630.37792969 1526.41015625 m 5,21,-1
 1628.953125 734.401367188 l 5,22,-1
 1372.95898438 736.154296875 l 5,23,-1
 1374.38378906 1528.16308594 l 5,24,-1
 1630.37792969 1526.41015625 l 5,21,-1
336.624023438 679.010742188 m 5,25,-1
 339.9375 1162.83886719 l 5,26,-1
 873.967773438 1159.18164062 l 5,27,-1
 870.654296875 675.352539062 l 5,28,-1
 336.624023438 679.010742188 l 5,25,-1
2051.34765625 1520.52636719 m 5,29,-1
 3.40234375 1535.55371094 l 5,30,-1
 5.18359375 1795.546875 l 5,31,-1
 2053.13574219 1781.52050781 l 5,32,-1
 2051.34765625 1520.52636719 l 5,29,-1
2039.1015625 -267.431640625 m 5,33,-1
 -8.84375 -252.404296875 l 5,34,-1
 -7.0625 7.5888671875 l 5,35,-1
 2040.88867188 -6.4375 l 5,36,-1
 2039.1015625 -267.431640625 l 5,33,-1
-5.87109375 -256.424804688 m 5,37,-1
 9.15625 1791.51953125 l 5,38,-1
 269.149414062 1789.73925781 l 5,39,-1
 255.123046875 -258.212890625 l 5,40,-1
 -5.87109375 -256.424804688 l 5,37,-1
1783.08691406 -268.678710938 m 5,41,-1
 1798.11425781 1779.26660156 l 5,42,-1
 2058.10742188 1777.48632812 l 5,43,-1
 2044.08105469 -270.465820312 l 5,44,-1
 1783.08691406 -268.678710938 l 5,41,-1
EndSplineSet
EndChar

StartChar: l
Encoding: 108 108 79
Width: 2048
GlyphClass: 1
Flags: W
LayerCount: 2
Fore
SplineSet
288 96 m 1,0,-1
 288 1568 l 1,1,-1
 448 1568 l 1,2,-1
 448 256 l 1,3,-1
 1760 256 l 1,4,-1
 1760 96 l 1,5,-1
 288 96 l 1,0,-1
EndSplineSet
EndChar

StartChar: m
Encoding: 109 109 80
Width: 2048
GlyphClass: 1
Flags: W
LayerCount: 2
Fore
SplineSet
208 1664 m 1,0,-1
 200 184 l 1,1,-1
 1816 176 l 1,2,-1
 1816 1660 l 1,3,-1
 208 1664 l 1,0,-1
0 1792 m 1,4,-1
 2048 1792 l 1,5,-1
 2048 0 l 1,6,-1
 0 0 l 1,7,-1
 0 1792 l 1,4,-1
470.48046875 272.900390625 m 5,8,-1
 470.48046875 1579.29980469 l 5,9,-1
 622.3203125 1579.29980469 l 5,10,-1
 1007.75976562 954.5 l 5,11,-1
 1393.20019531 1579.29980469 l 5,12,-1
 1545.04003906 1579.29980469 l 5,13,-1
 1545.04003906 272.900390625 l 5,14,-1
 1428.24023438 272.900390625 l 5,15,16
 1428 699 1428 699 1428.24023438 1394.70019531 c 5,17,18
 1428.24023438 1394.70019531 1428.24023438 1394.70019531 1089.51953125 855.099609375 c 5,19,-1
 926 855.099609375 l 5,20,-1
 587.280273438 1394.70019531 l 5,21,-1
 587.280273438 272.900390625 l 5,22,-1
 470.48046875 272.900390625 l 5,8,-1
EndSplineSet
EndChar

StartChar: n
Encoding: 110 110 81
Width: 2048
GlyphClass: 1
Flags: W
LayerCount: 2
Fore
SplineSet
1244 1318 m 5,0,-1
 1364 1318 l 5,1,-1
 1364 1168 l 5,2,-1
 1244 1168 l 5,3,-1
 1244 1318 l 5,0,-1
1025 1324 m 5,4,-1
 1175 1324 l 5,5,-1
 1175 1165 l 5,6,-1
 1025 1165 l 5,7,-1
 1025 1324 l 5,4,-1
920 1468 m 29,8,-1
 928 1080 l 5,9,-1
 1412 1112 l 5,10,-1
 1416 1456 l 5,11,-1
 920 1468 l 29,8,-1
1162 454 m 5,12,-1
 1402 454 l 5,13,-1
 1402 0 l 5,14,-1
 1162 0 l 5,15,-1
 1162 454 l 5,12,-1
539 1579 m 5,16,-1
 1415 1579 l 5,17,-1
 1415 457 l 5,18,-1
 539 457 l 5,19,-1
 539 1579 l 5,16,-1
542 454 m 5,20,-1
 782 454 l 5,21,-1
 782 0 l 5,22,-1
 542 0 l 5,23,-1
 542 454 l 5,20,-1
EndSplineSet
EndChar

StartChar: o
Encoding: 111 111 82
Width: 2048
GlyphClass: 1
Flags: W
LayerCount: 2
Fore
SplineSet
1405.55371094 1287.73925781 m 5,0,-1
 943.217773438 1287.73925781 l 6,1,2
 604.171875 1287.34570312 604.171875 1287.34570312 604.171875 1010.23144531 c 4,3,4
 604.171875 972.389648438 604.171875 972.389648438 604.171875 909.319335938 c 4,5,6
 604.653320312 631.811523438 604.653320312 631.811523438 943.217773438 631.811523438 c 4,7,8
 1158.97460938 631.811523438 1158.97460938 631.811523438 1405.55371094 631.811523438 c 5,9,-1
 1405.55371094 732.723632812 l 5,10,-1
 927.805664062 732.723632812 l 6,11,12
 730.83203125 733.118164062 730.83203125 733.118164062 727.4609375 896.706054688 c 4,13,14
 727.4609375 947.162109375 727.4609375 947.162109375 727.4609375 1022.84570312 c 4,15,16
 728.90625 1190.76953125 728.90625 1190.76953125 927.805664062 1186.828125 c 5,17,18
 1112.74121094 1186.828125 1112.74121094 1186.828125 1405.55371094 1186.828125 c 5,19,-1
 1405.55371094 1287.73925781 l 5,0,-1
285 1516 m 5,20,-1
 543 1516 l 5,21,-1
 543 244 l 5,22,-1
 285 244 l 5,23,-1
 285 1516 l 5,20,-1
1535 6 m 1029,24,-1
539 240 m 5,25,-1
 1535 240 l 5,26,-1
 1535 6 l 5,27,-1
 539 6 l 5,28,-1
 539 240 l 5,25,-1
1535 1516 m 5,29,-1
 1793 1516 l 5,30,-1
 1793 244 l 5,31,-1
 1535 244 l 5,32,-1
 1535 1516 l 5,29,-1
539 1750 m 5,33,-1
 1535 1750 l 5,34,-1
 1535 1516 l 5,35,-1
 539 1516 l 5,36,-1
 539 1750 l 5,33,-1
EndSplineSet
EndChar

StartChar: p
Encoding: 112 112 83
Width: 2048
GlyphClass: 1
Flags: W
LayerCount: 2
Fore
SplineSet
1322.55957031 1293.29492188 m 5,0,-1
 1420.95996094 1293.29492188 l 5,1,-1
 1420.95996094 1163.54492188 l 5,2,-1
 1322.55957031 1163.54492188 l 5,3,-1
 1322.55957031 1293.29492188 l 5,0,-1
1142.98046875 1298.48535156 m 5,4,-1
 1265.98046875 1298.48535156 l 5,5,-1
 1265.98046875 1160.95019531 l 5,6,-1
 1142.98046875 1160.95019531 l 5,7,-1
 1142.98046875 1298.48535156 l 5,4,-1
1056.87988281 1423.04492188 m 29,8,-1
 1063.44042969 1087.42480469 l 5,9,-1
 1460.3203125 1115.10546875 l 5,10,-1
 1463.59960938 1412.66503906 l 5,11,-1
 1056.87988281 1423.04492188 l 29,8,-1
1255.3203125 545.934570312 m 5,12,-1
 1452.12011719 545.934570312 l 5,13,-1
 1452.12011719 153.224609375 l 5,14,-1
 1255.3203125 153.224609375 l 5,15,-1
 1255.3203125 545.934570312 l 5,12,-1
744.459960938 1519.05957031 m 5,16,-1
 1462.78027344 1519.05957031 l 5,17,-1
 1462.78027344 548.530273438 l 5,18,-1
 744.459960938 548.530273438 l 5,19,-1
 744.459960938 1519.05957031 l 5,16,-1
746.919921875 545.934570312 m 5,20,-1
 943.719726562 545.934570312 l 5,21,-1
 943.719726562 153.224609375 l 5,22,-1
 746.919921875 153.224609375 l 5,23,-1
 746.919921875 545.934570312 l 5,20,-1
368 1644 m 5,24,-1
 372 120 l 5,25,-1
 1860 124 l 5,26,-1
 1852 1644 l 5,27,-1
 368 1644 l 5,24,-1
208 1748 m 5,28,-1
 1968 1748 l 5,29,-1
 1968 36 l 5,30,-1
 228 24 l 5,31,-1
 208 1748 l 5,28,-1
436 1568 m 1028,32,-1
436 96 m 1028,33,-1
1588 96 m 1028,34,-1
EndSplineSet
EndChar

StartChar: q
Encoding: 113 113 84
Width: 2048
GlyphClass: 1
Flags: W
LayerCount: 2
Fore
SplineSet
1078.49023438 1346.57519531 m 29,0,-1
 1055.68066406 1068.37988281 l 29,1,-1
 1326.40039062 1055.17089844 l 29,2,-1
 1326.40039062 1325.96875 l 29,3,-1
 1078.49023438 1346.57519531 l 29,0,-1
1592 1306 m 5,4,-1
 2048 1306 l 5,5,-1
 2048 1066 l 5,6,-1
 1592 1066 l 5,7,-1
 1592 1306 l 5,4,-1
638 250 m 5,8,-1
 638 730 l 5,9,-1
 850 730 l 5,10,-1
 850 250 l 5,11,-1
 638 250 l 5,8,-1
1242 414 m 5,12,-1
 718 414 l 5,13,-1
 714 626 l 5,14,-1
 1238 626 l 5,15,-1
 1242 414 l 5,12,-1
1002 418 m 1029,16,-1
1002 162 m 5,17,-1
 1002 722 l 5,18,-1
 1242 722 l 5,19,-1
 1242 162 l 5,20,-1
 1002 162 l 5,17,-1
1794 166 m 5,21,-1
 1002 162 l 5,22,-1
 1002 418 l 5,23,-1
 1794 422 l 5,24,-1
 1794 166 l 5,21,-1
937.759765625 1453.91992188 m 5,25,-1
 1421.59960938 1453.91992188 l 5,26,-1
 1421.59960938 919.876953125 l 5,27,-1
 937.759765625 919.876953125 l 5,28,-1
 937.759765625 1453.91992188 l 5,25,-1
1791 -255 m 5,29,-1
 1792 1793 l 5,30,-1
 2052 1793 l 5,31,-1
 2052 -255 l 5,32,-1
 1791 -255 l 5,29,-1
3 -255 m 5,33,-1
 4 1793 l 5,34,-1
 264 1793 l 5,35,-1
 264 -255 l 5,36,-1
 3 -255 l 5,33,-1
0 1790 m 5,37,-1
 2048 1789 l 5,38,-1
 2048 1529 l 5,39,-1
 0 1529 l 5,40,-1
 0 1790 l 5,37,-1
0 1 m 5,41,-1
 2048 0 l 5,42,-1
 2048 -260 l 5,43,-1
 0 -260 l 5,44,-1
 0 1 l 5,41,-1
EndSplineSet
EndChar

StartChar: r
Encoding: 114 114 85
Width: 2048
GlyphClass: 1
Flags: W
LayerCount: 2
Fore
SplineSet
976.509765625 1346.57519531 m 29,0,-1
 999.319335938 1068.37988281 l 29,1,-1
 728.599609375 1055.17089844 l 29,2,-1
 728.599609375 1325.96875 l 29,3,-1
 976.509765625 1346.57519531 l 29,0,-1
463 1306 m 5,4,-1
 7 1306 l 5,5,-1
 7 1066 l 5,6,-1
 463 1066 l 5,7,-1
 463 1306 l 5,4,-1
1417 250 m 5,8,-1
 1417 730 l 5,9,-1
 1205 730 l 5,10,-1
 1205 250 l 5,11,-1
 1417 250 l 5,8,-1
813 414 m 5,12,-1
 1337 414 l 5,13,-1
 1341 626 l 5,14,-1
 817 626 l 5,15,-1
 813 414 l 5,12,-1
1053 418 m 1029,16,-1
1053 162 m 5,17,-1
 1053 722 l 5,18,-1
 813 722 l 5,19,-1
 813 162 l 5,20,-1
 1053 162 l 5,17,-1
261 166 m 5,21,-1
 1053 162 l 5,22,-1
 1053 418 l 5,23,-1
 261 422 l 5,24,-1
 261 166 l 5,21,-1
1117.24023438 1453.91992188 m 5,25,-1
 633.400390625 1453.91992188 l 5,26,-1
 633.400390625 919.876953125 l 5,27,-1
 1117.24023438 919.876953125 l 5,28,-1
 1117.24023438 1453.91992188 l 5,25,-1
264 -255 m 5,29,-1
 263 1793 l 5,30,-1
 3 1793 l 5,31,-1
 3 -255 l 5,32,-1
 264 -255 l 5,29,-1
2052 -255 m 5,33,-1
 2051 1793 l 5,34,-1
 1791 1793 l 5,35,-1
 1791 -255 l 5,36,-1
 2052 -255 l 5,33,-1
2055 1790 m 5,37,-1
 7 1789 l 5,38,-1
 7 1529 l 5,39,-1
 2055 1529 l 5,40,-1
 2055 1790 l 5,37,-1
2055 1 m 5,41,-1
 7 0 l 5,42,-1
 7 -260 l 5,43,-1
 2055 -260 l 5,44,-1
 2055 1 l 5,41,-1
EndSplineSet
EndChar

StartChar: s
Encoding: 115 115 86
Width: 2048
GlyphClass: 1
Flags: W
LayerCount: 2
Fore
SplineSet
1227.50488281 678.387695312 m 5,0,-1
 1386.40527344 678.387695312 l 5,1,-1
 1386.40527344 578.462890625 l 5,2,-1
 1227.50488281 578.462890625 l 5,3,-1
 1227.50488281 678.387695312 l 5,0,-1
1386.40527344 578.462890625 m 1029,4,-1
648.655273438 678.387695312 m 5,5,-1
 807.5546875 678.387695312 l 5,6,-1
 807.5546875 578.462890625 l 5,7,-1
 648.655273438 578.462890625 l 5,8,-1
 648.655273438 678.387695312 l 5,5,-1
807.5546875 578.462890625 m 5,9,-1
 1221.83007812 578.462890625 l 5,10,-1
 1221.83007812 421.4375 l 5,11,-1
 807.5546875 421.4375 l 5,12,-1
 807.5546875 578.462890625 l 5,9,-1
1068 1229 m 1025,13,-1
1068 1229 m 1,14,-1
 1208 1229 l 1,15,-1
 1208 1059 l 1,16,-1
 1068 1059 l 1,17,-1
 1068 1229 l 1,14,-1
678 1229 m 1025,18,-1
678 1229 m 1,19,-1
 818 1229 l 1,20,-1
 818 1059 l 1,21,-1
 678 1059 l 1,22,-1
 678 1229 l 1,19,-1
494 1394 m 1,23,-1
 494 269 l 1,24,-1
 244 274 l 1,25,-1
 244 1399 l 1,26,-1
 494 1394 l 1,23,-1
494 1604 m 1,27,-1
 1509 1604 l 1,28,-1
 1509 1394 l 1,29,-1
 494 1394 l 1,30,-1
 494 1604 l 1,27,-1
1509 1394 m 1,31,-1
 1734 1399 l 1,32,-1
 1734 244 l 1,33,-1
 1509 239 l 1,34,-1
 1509 1394 l 1,31,-1
639 449 m 1029,35,-1
494 259 m 1,36,-1
 1529 259 l 1,37,-1
 1529 100 l 1,38,-1
 494 100 l 1,39,-1
 494 259 l 1,36,-1
EndSplineSet
EndChar

StartChar: t
Encoding: 116 116 87
Width: 2048
GlyphClass: 1
Flags: W
LayerCount: 2
Fore
SplineSet
290.002929688 1001.75683594 m 5,0,-1
 1257.44433594 26.0849609375 l 5,1,-1
 965.594726562 -263.301757812 l 5,2,-1
 -1.845703125 712.369140625 l 5,3,-1
 290.002929688 1001.75683594 l 5,0,-1
0 253 m 5,4,-1
 453 253 l 5,5,-1
 453 -254 l 5,6,-1
 0 -254 l 5,7,-1
 0 253 l 5,4,-1
EndSplineSet
EndChar

StartChar: u
Encoding: 117 117 88
Width: 2048
GlyphClass: 1
Flags: W
LayerCount: 2
Fore
SplineSet
790.243164062 36.0029296875 m 1,0,-1
 1765.91503906 1003.44433594 l 1,1,-1
 2055.30175781 711.594726562 l 1,2,-1
 1079.63085938 -255.845703125 l 1,3,-1
 790.243164062 36.0029296875 l 1,0,-1
1539 -254 m 1,4,-1
 1539 199 l 1,5,-1
 2046 199 l 1,6,-1
 2046 -254 l 1,7,-1
 1539 -254 l 1,4,-1
EndSplineSet
EndChar

StartChar: w
Encoding: 119 119 90
Width: 2048
GlyphClass: 1
Flags: W
LayerCount: 2
Fore
SplineSet
0 0 m 1,0,-1
 2048 0 l 1,1,-1
 2048 -254 l 1,2,-1
 0 -254 l 1,3,-1
 0 0 l 1,0,-1
2048 -264 m 1,4,-1
 2048 -232 l 1,5,-1
 2048 -264 l 1,4,-1
0 1788 m 1,6,-1
 2048 1788 l 1,7,-1
 2048 1534 l 1,8,-1
 0 1534 l 1,9,-1
 0 1788 l 1,6,-1
1740 1788 m 1,10,-1
 2051 1788 l 1,11,-1
 2051 0 l 1,12,-1
 1740 0 l 1,13,-1
 1740 1788 l 1,10,-1
0 1788 m 1,14,-1
 311 1788 l 1,15,-1
 311 0 l 1,16,-1
 0 0 l 1,17,-1
 0 1788 l 1,14,-1
EndSplineSet
EndChar

StartChar: x
Encoding: 120 120 91
Width: 2048
GlyphClass: 1
Flags: W
LayerCount: 2
Fore
SplineSet
1254.75683594 1499.99707031 m 5,0,-1
 279.084960938 532.555664062 l 5,1,-1
 -10.3017578125 824.405273438 l 5,2,-1
 965.369140625 1791.84570312 l 5,3,-1
 1254.75683594 1499.99707031 l 5,0,-1
506 1790 m 5,4,-1
 506 1337 l 5,5,-1
 -1 1337 l 5,6,-1
 -1 1790 l 5,7,-1
 506 1790 l 5,4,-1
EndSplineSet
EndChar

StartChar: y
Encoding: 121 121 92
Width: 2048
GlyphClass: 1
Flags: W
LayerCount: 2
Fore
SplineSet
793.243164062 1499.99707031 m 5,0,-1
 1768.91503906 532.555664062 l 5,1,-1
 2058.30175781 824.405273438 l 5,2,-1
 1082.63085938 1791.84570312 l 5,3,-1
 793.243164062 1499.99707031 l 5,0,-1
1542 1790 m 5,4,-1
 1542 1337 l 5,5,-1
 2049 1337 l 5,6,-1
 2049 1790 l 5,7,-1
 1542 1790 l 5,4,-1
EndSplineSet
EndChar

StartChar: z
Encoding: 122 122 93
Width: 2048
GlyphClass: 1
Flags: W
LayerCount: 2
Fore
SplineSet
368 1644 m 5,0,-1
 372 120 l 5,1,-1
 1860 124 l 5,2,-1
 1852 1644 l 5,3,-1
 368 1644 l 5,0,-1
208 1748 m 5,4,-1
 1968 1748 l 5,5,-1
 1968 36 l 5,6,-1
 228 24 l 5,7,-1
 208 1748 l 5,4,-1
436 1568 m 1028,8,-1
436 96 m 1028,9,-1
1588 96 m 1028,10,-1
1121.36035156 1395.45019531 m 29,11,-1
 1128.63964844 1094.75 l 29,12,-1
 1569.08007812 1119.54980469 l 29,13,-1
 1572.71972656 1386.15039062 l 29,14,-1
 1121.36035156 1395.45019531 l 29,11,-1
1341.58007812 609.599609375 m 5,15,-1
 1559.98046875 609.599609375 l 5,16,-1
 1559.98046875 257.75 l 5,17,-1
 1341.58007812 257.75 l 5,18,-1
 1341.58007812 609.599609375 l 5,15,-1
774.650390625 1481.47460938 m 5,19,-1
 1571.80957031 1481.47460938 l 5,20,-1
 1571.80957031 611.924804688 l 5,21,-1
 774.650390625 611.924804688 l 5,22,-1
 774.650390625 1481.47460938 l 5,19,-1
777.379882812 609.599609375 m 5,23,-1
 995.780273438 609.599609375 l 5,24,-1
 995.780273438 257.75 l 5,25,-1
 777.379882812 257.75 l 5,26,-1
 777.379882812 609.599609375 l 5,23,-1
553.51953125 1253.625 m 5,27,-1
 777.379882812 1253.625 l 5,28,-1
 777.379882812 491.025390625 l 5,29,-1
 553.51953125 491.025390625 l 5,30,-1
 553.51953125 1253.625 l 5,27,-1
EndSplineSet
EndChar

StartChar: braceleft
Encoding: 123 123 94
Width: 2048
GlyphClass: 1
Flags: W
LayerCount: 2
Fore
SplineSet
1344 1792 m 1,0,-1
 1344 1536 l 1,1,2
 1024 1536 1024 1536 1024 1344 c 0,3,4
 1024 832 1024 832 768 832 c 1,5,6
 1024 832 1024 832 1024 320 c 0,7,8
 1024 128 1024 128 1344 128 c 1,9,-1
 1344 -128 l 1,10,11
 768 -128 768 -128 768 320 c 0,12,13
 768 704 768 704 384 704 c 1,14,-1
 384 960 l 1,15,16
 768 960 768 960 768 1344 c 0,17,18
 768 1792 768 1792 1344 1792 c 1,0,-1
EndSplineSet
EndChar

StartChar: bar
Encoding: 124 124 95
Width: 2048
GlyphClass: 1
Flags: W
LayerCount: 2
Fore
SplineSet
896 1792 m 1,0,-1
 1152 1792 l 1,1,-1
 1152 -128 l 1,2,-1
 896 -128 l 1,3,-1
 896 1792 l 1,0,-1
EndSplineSet
EndChar

StartChar: braceright
Encoding: 125 125 96
Width: 2048
GlyphClass: 1
Flags: W
LayerCount: 2
Fore
SplineSet
704 1792 m 1,0,-1
 704 1536 l 1,1,2
 1024 1536 1024 1536 1024 1344 c 0,3,4
 1024 832 1024 832 1280 832 c 1,5,6
 1024 832 1024 832 1024 320 c 0,7,8
 1024 128 1024 128 704 128 c 1,9,-1
 704 -128 l 1,10,11
 1280 -128 1280 -128 1280 320 c 0,12,13
 1280 704 1280 704 1664 704 c 1,14,-1
 1664 960 l 1,15,16
 1280 960 1280 960 1280 1344 c 0,17,18
 1280 1792 1280 1792 704 1792 c 1,0,-1
EndSplineSet
EndChar

StartChar: asciitilde
Encoding: 126 126 97
Width: 2048
GlyphClass: 1
Flags: W
LayerCount: 2
Fore
SplineSet
192 960 m 1,0,1
 320 1152 320 1152 640 1152 c 0,2,3
 896 1152 896 1152 1024 960 c 128,-1,4
 1152 768 1152 768 1408 768 c 0,5,6
 1728 768 1728 768 1856 960 c 1,7,8
 1856 832 1856 832 1856 704 c 1,9,10
 1728 512 1728 512 1408 512 c 0,11,12
 1152 512 1152 512 1024 704 c 128,-1,13
 896 896 896 896 640 896 c 0,14,15
 320 896 320 896 192 704 c 1,16,-1
 192 960 l 1,0,1
EndSplineSet
EndChar

